<?xml version="1.0" encoding="utf-8"?>
<!-- Generator: Adobe Illustrator 25.4.1, SVG Export Plug-In . SVG Version: 6.00 Build 0)  -->
<svg version="1.1" id="Layer_1" xmlns="http://www.w3.org/2000/svg" xmlns:xlink="http://www.w3.org/1999/xlink" x="0px" y="0px"
	 viewBox="0 0 1780.8 344.1" style="enable-background:new 0 0 1780.8 344.1;" xml:space="preserve">
<style type="text/css">
	.st0{fill:#F4F4F4;stroke:#F4F4F4;stroke-width:2;stroke-miterlimit:10;}
	.st1{fill:#303031;}
	.st2{fill:#4F5CA6;}
</style>
<path class="st0" d="M97.9,7.5h150.5c49.2,0,89.1,39.9,89.1,89.1v150.5c0,49.2-39.9,89.1-89.1,89.1H97.9
	c-49.2,0-89.1-39.9-89.1-89.1V96.6C8.8,47.4,48.7,7.5,97.9,7.5z"/>
<g>
	<path class="st1" d="M404.4,253.3v-153h48.2c8.4,0,16.3,0.8,23.5,2.3c7.3,1.6,13.5,4.2,18.8,8c5.3,3.7,9.4,8.6,12.4,14.6
		c3,6,4.4,13.5,4.4,22.3c0,8.4-1.5,15.8-4.4,22c-3,6.2-7.1,11.4-12.3,15.6c-5.2,4.1-11.4,7.2-18.5,9.1c-7.1,2-14.8,2.9-23,2.9h-22
		v56.2H404.4z M431.6,175.3h19.9c22.5,0,33.7-9.3,33.7-27.8c0-9.7-2.9-16.3-8.8-20c-5.9-3.7-14.5-5.5-25.9-5.5h-19V175.3z"/>
	<path class="st1" d="M550.2,256.1c-10.1,0-18.3-3.1-24.6-9.2c-6.2-6.2-9.4-14.3-9.4-24.5c0-6.1,1.3-11.5,3.9-16.3
		c2.6-4.8,6.6-8.9,12.2-12.3c5.5-3.4,12.6-6.3,21.1-8.7c8.5-2.3,18.7-4.1,30.5-5.4c-0.2-3-0.6-5.8-1.3-8.5c-0.7-2.7-1.9-5.1-3.5-7.3
		c-1.6-2.1-3.8-3.7-6.4-4.9c-2.7-1.2-5.9-1.8-9.8-1.8c-5.6,0-11.1,1.1-16.5,3.3c-5.4,2.2-10.6,4.8-15.8,8l-9.8-18
		c6.4-4.1,13.6-7.6,21.5-10.5c8-3,16.5-4.4,25.7-4.4c14.4,0,25.1,4.3,32.2,12.8c7.1,8.5,10.6,20.8,10.6,36.9v68.1h-22.2l-1.9-12.6
		h-0.9c-5.1,4.4-10.6,8-16.5,11C563.5,254.6,557.1,256.1,550.2,256.1z M558.9,235c4.7,0,8.9-1.1,12.8-3.3c3.8-2.2,7.9-5.3,12.3-9.4
		v-25.7c-7.8,0.9-14.4,2.2-19.7,3.7c-5.3,1.6-9.6,3.3-12.9,5.3c-3.3,2-5.6,4.2-7,6.7c-1.4,2.5-2.1,5.1-2.1,8c0,5.1,1.6,8.9,4.7,11.2
		C550.1,233.8,554.1,235,558.9,235z"/>
	<path class="st1" d="M645.3,253.3l-30.4-114.9H642l13.8,59.7c1.2,5.5,2.3,10.9,3.2,16.4c0.9,5.5,1.8,11,2.9,16.6h0.9
		c1.1-5.6,2.2-11.2,3.4-16.6c1.2-5.5,2.5-10.9,3.9-16.4l15-59.7h24.6l15.2,59.7c1.4,5.5,2.7,10.9,4,16.4c1.2,5.5,2.5,11,3.7,16.6
		h0.9c1.1-5.6,2.1-11.2,3-16.6c0.9-5.5,1.9-10.9,3-16.4l13.8-59.7h25.3l-29.2,114.9h-32.1L704,199.7c-1.2-5.5-2.4-10.9-3.5-16.3
		c-1.1-5.4-2.3-11.1-3.5-17.2h-0.9c-1.1,6.1-2.2,11.9-3.3,17.3c-1.1,5.5-2.3,10.9-3.5,16.4l-13.1,53.4H645.3z"/>
	<path class="st1" d="M833.9,256.1c-8,0-15.4-1.4-22.2-4.1c-6.9-2.7-12.9-6.7-18-11.8c-5.1-5.1-9.2-11.4-12.1-18.8
		c-2.9-7.4-4.3-15.9-4.3-25.4c0-9.4,1.5-17.8,4.4-25.3c3-7.5,6.9-13.8,11.8-19s10.6-9.1,17-11.9c6.4-2.8,12.9-4.2,19.7-4.2
		c7.8,0,14.7,1.3,20.6,4c5.9,2.7,10.9,6.4,14.9,11.2c4,4.8,7,10.6,9,17.3c2,6.7,3,14,3,22c0,2.7-0.1,5.1-0.4,7.5
		c-0.2,2.3-0.5,4.2-0.8,5.6h-73c1.2,10.3,4.9,18.2,10.9,23.8c6,5.5,13.7,8.3,23,8.3c5,0,9.6-0.7,13.9-2.2c4.3-1.5,8.5-3.5,12.8-6.2
		l9.1,16.8c-5.5,3.6-11.5,6.6-18.3,8.9C848.3,254.9,841.3,256.1,833.9,256.1z M803.3,184.9h51c0-8.9-1.9-15.9-5.7-20.9
		c-3.8-5.1-9.7-7.6-17.7-7.6c-6.9,0-12.9,2.4-18,7.3C807.7,168.5,804.5,175.6,803.3,184.9z"/>
	<path class="st1" d="M915.5,256.1c-9.7,0-16.5-2.9-20.4-8.7c-3.9-5.8-5.8-13.6-5.8-23.6V88h26.9v137.1c0,3.3,0.6,5.6,1.9,6.9
		c1.2,1.3,2.6,2,4,2c0.6,0,1.2,0,1.8,0c0.5,0,1.4-0.2,2.5-0.5l3.5,20.1C926.2,255.3,921.5,256.1,915.5,256.1z"/>
	<path class="st1" d="M1015,256.1c-10.8,0-19.9-2.2-27.3-6.6c-7.4-4.4-13.5-10.8-18.4-19.4l18.7-13.8c3.1,5.6,6.7,9.7,10.8,12.3
		c4.1,2.6,8.4,3.9,13.1,3.9c7.2,0,12.6-2.2,16.1-6.6c3.6-4.4,5.4-12,5.4-22.9V100.2h27.1v105.1c0,7-0.9,13.6-2.6,19.8
		c-1.7,6.2-4.4,11.5-8.2,16.1c-3.7,4.6-8.5,8.2-14.3,10.9C1029.8,254.7,1022.9,256.1,1015,256.1z"/>
	<path class="st1" d="M1131,256.1c-8,0-15.4-1.4-22.2-4.1c-6.9-2.7-12.9-6.7-18-11.8c-5.1-5.1-9.2-11.4-12.1-18.8
		c-2.9-7.4-4.3-15.9-4.3-25.4c0-9.4,1.5-17.8,4.4-25.3c3-7.5,6.9-13.8,11.8-19s10.6-9.1,17-11.9c6.4-2.8,12.9-4.2,19.7-4.2
		c7.8,0,14.7,1.3,20.6,4c5.9,2.7,10.9,6.4,14.9,11.2c4,4.8,7,10.6,9,17.3c2,6.7,3,14,3,22c0,2.7-0.1,5.1-0.4,7.5
		c-0.2,2.3-0.5,4.2-0.8,5.6h-73c1.2,10.3,4.9,18.2,10.9,23.8c6,5.5,13.7,8.3,23,8.3c5,0,9.6-0.7,13.9-2.2c4.3-1.5,8.5-3.5,12.8-6.2
		l9.1,16.8c-5.5,3.6-11.5,6.6-18.3,8.9C1145.4,254.9,1138.3,256.1,1131,256.1z M1100.3,184.9h51c0-8.9-1.9-15.9-5.7-20.9
		c-3.8-5.1-9.7-7.6-17.7-7.6c-6.9,0-12.9,2.4-18,7.3C1104.8,168.5,1101.6,175.6,1100.3,184.9z"/>
	<path class="st1" d="M1228.2,256.1c-14.5,0-26-5.3-34.5-15.8c-8.5-10.5-12.8-25.3-12.8-44.3c0-9.4,1.4-17.8,4.1-25.3
		c2.7-7.5,6.4-13.8,10.9-19c4.5-5.1,9.7-9.1,15.6-11.9c5.9-2.8,11.9-4.2,18.1-4.2c6.6,0,12.1,1.1,16.6,3.4c4.5,2.3,9,5.3,13.6,9.2
		l-0.9-18.5V88h26.9v165.2h-22.2l-1.9-12.4h-0.9c-4.2,4.2-9.1,7.8-14.7,10.8C1240.3,254.6,1234.4,256.1,1228.2,256.1z M1234.7,233.8
		c8.6,0,16.6-4.3,24.1-12.9v-53.6c-4.1-3.6-8-6.1-11.8-7.5c-3.8-1.4-7.7-2.1-11.6-2.1c-7.5,0-13.8,3.3-19,9.8
		c-5.1,6.6-7.7,15.9-7.7,28.1c0,12.5,2.2,22,6.7,28.4C1219.8,230.6,1226.3,233.8,1234.7,233.8z"/>
	<path class="st1" d="M1304.5,253.3V138.4h22.2l1.9,20.4h0.9c4.1-7.5,9-13.2,14.7-17.2c5.8-4,11.7-6,17.8-6c5.5,0,9.8,0.8,13.1,2.3
		l-4.7,23.4c-2-0.6-3.9-1.1-5.6-1.4c-1.7-0.3-3.8-0.5-6.3-0.5c-4.5,0-9.3,1.8-14.3,5.3c-5,3.5-9.3,9.6-12.9,18.4v70.2H1304.5z"/>
	<path class="st1" d="M1407.5,256.1c-10.1,0-18.3-3.1-24.6-9.2c-6.2-6.2-9.4-14.3-9.4-24.5c0-6.1,1.3-11.5,3.9-16.3
		c2.6-4.8,6.6-8.9,12.2-12.3c5.5-3.4,12.6-6.3,21.1-8.7c8.5-2.3,18.7-4.1,30.5-5.4c-0.2-3-0.6-5.8-1.3-8.5c-0.7-2.7-1.9-5.1-3.5-7.3
		s-3.8-3.7-6.4-4.9c-2.7-1.2-5.9-1.8-9.8-1.8c-5.6,0-11.1,1.1-16.5,3.3c-5.4,2.2-10.6,4.8-15.8,8l-9.8-18
		c6.4-4.1,13.6-7.6,21.5-10.5c8-3,16.5-4.4,25.7-4.4c14.4,0,25.1,4.3,32.2,12.8c7.1,8.5,10.6,20.8,10.6,36.9v68.1h-22.2l-1.9-12.6
		h-0.9c-5.1,4.4-10.6,8-16.5,11C1420.7,254.6,1414.3,256.1,1407.5,256.1z M1416.1,235c4.7,0,8.9-1.1,12.8-3.3
		c3.8-2.2,7.9-5.3,12.3-9.4v-25.7c-7.8,0.9-14.4,2.2-19.7,3.7c-5.3,1.6-9.6,3.3-12.9,5.3c-3.3,2-5.6,4.2-7,6.7
		c-1.4,2.5-2.1,5.1-2.1,8c0,5.1,1.6,8.9,4.7,11.2C1407.3,233.8,1411.3,235,1416.1,235z"/>
	<path class="st1" d="M1518.1,256.1c-8,0-15.8-1.5-23.5-4.6s-14.4-6.8-20-11.3l12.6-17.3c5.1,4.1,10.3,7.2,15.3,9.5
		c5.1,2.3,10.6,3.4,16.5,3.4c6.2,0,10.8-1.3,13.8-3.9c3-2.6,4.4-5.9,4.4-9.9c0-2.3-0.7-4.4-2.1-6.2c-1.4-1.8-3.3-3.4-5.6-4.8
		c-2.3-1.4-5-2.7-8-3.9c-3-1.2-5.9-2.4-8.9-3.6c-3.7-1.4-7.6-3-11.5-4.9c-3.9-1.9-7.4-4.1-10.4-6.8c-3-2.7-5.5-5.7-7.5-9.2
		c-2-3.5-2.9-7.7-2.9-12.5c0-10.1,3.7-18.4,11.2-24.8c7.5-6.4,17.7-9.6,30.7-9.6c8,0,15.1,1.4,21.5,4.2c6.4,2.8,11.9,6,16.6,9.6
		l-12.4,16.4c-4.1-3-8.2-5.3-12.3-7.1c-4.1-1.8-8.5-2.7-13-2.7c-5.8,0-10,1.2-12.8,3.6c-2.7,2.4-4.1,5.4-4.1,9c0,2.3,0.7,4.3,2,6
		c1.3,1.6,3.1,3.1,5.3,4.3c2.2,1.3,4.7,2.4,7.6,3.5c2.9,1.1,5.9,2.2,9,3.3c3.9,1.4,7.8,3,11.7,4.8c3.9,1.8,7.4,4,10.6,6.7
		c3.2,2.7,5.8,5.9,7.7,9.7c1.9,3.8,2.9,8.4,2.9,13.7c0,5-1,9.6-2.9,13.9c-2,4.3-4.8,8-8.5,11.2c-3.7,3.2-8.4,5.7-14,7.6
		S1525.3,256.1,1518.1,256.1z"/>
	<path class="st1" d="M1586.6,118.2c-4.8,0-8.8-1.4-11.9-4.2c-3.1-2.8-4.7-6.5-4.7-11c0-4.5,1.6-8.2,4.7-11.1
		c3.1-2.9,7.1-4.3,11.9-4.3c4.8,0,8.8,1.4,11.9,4.3c3.1,2.9,4.7,6.6,4.7,11.1c0,4.5-1.6,8.2-4.7,11
		C1595.4,116.8,1591.4,118.2,1586.6,118.2z M1573,253.3V138.4h26.9v114.9H1573z"/>
	<path class="st1" d="M1618.9,253.3V88h26.4v103.2h0.7l42.6-52.9h29.5l-39.3,46.8l43.3,68.1h-29.2l-29.5-49.8l-18,20.6v29.2H1618.9z
		"/>
</g>
<g>
	<path class="st2" d="M70.8,263.4V77c0-3.3,2.7-6,6-6h62.1c11,0,21.2,1.1,30.7,3.2c9.5,2.1,17.8,5.7,24.9,10.6
		c7.1,5,12.7,11.6,16.9,19.8c4.2,8.2,6.2,18.3,6.2,30.3c0,11.6-2.1,21.6-6.2,30.1c-4.2,8.5-9.8,15.5-16.9,21
		c-7.1,5.5-15.3,9.5-24.6,12.2c-9.3,2.6-19.3,4-29.8,4h-18.6c-3.3,0-6,2.7-6,6v55.2c0,3.3-2.7,6-6,6H76.8
		C73.4,269.4,70.8,266.7,70.8,263.4z M115.5,160.6c0,3.3,2.7,6,6,6h15.9c24.3,0,36.5-10.5,36.5-31.6c0-10.3-3.2-17.6-9.7-21.9
		c-6.5-4.3-15.8-6.4-28-6.4h-14.7c-3.3,0-6,2.7-6,6V160.6z"/>
	<path class="st2" d="M211.6,273.1c-15.2,0-27.9-2.9-38.2-8.8c-8.8-5.1-16.4-12.5-22.8-22.2c-1.7-2.7-1.1-6.2,1.5-8.1l20.8-15.4
		c2.7-2,6.6-1.4,8.5,1.4c2.9,4.1,6,7.3,9.5,9.6c4.9,3.2,9.8,4.9,14.9,4.9c8.1,0,14.2-2.5,18.4-7.5c4.2-5,6.2-14,6.2-27.2V77.1
		c0-3.3,2.7-6,6-6h32.7c3.3,0,6,2.7,6,6v126.3c0,9.5-1.3,18.6-3.8,27.1c-2.5,8.5-6.4,15.9-11.6,22.2c-5.2,6.3-11.8,11.3-19.8,14.9
		C232,271.2,222.6,273.1,211.6,273.1z"/>
</g>
</svg>
